<?xml version="1.0" encoding="UTF-8" standalone="no"?>
<!-- Generator: Adobe Illustrator 16.0.0, SVG Export Plug-In . SVG Version: 6.00 Build 0)  -->

<svg
   xmlns:dc="http://purl.org/dc/elements/1.1/"
   xmlns:cc="http://creativecommons.org/ns#"
   xmlns:rdf="http://www.w3.org/1999/02/22-rdf-syntax-ns#"
   xmlns:svg="http://www.w3.org/2000/svg"
   xmlns="http://www.w3.org/2000/svg"
   xmlns:sodipodi="http://sodipodi.sourceforge.net/DTD/sodipodi-0.dtd"
   xmlns:inkscape="http://www.inkscape.org/namespaces/inkscape"
   version="1.1"
   id="svg2"
   x="0px"
   y="0px"
   width="351.46px"
   height="258.785px"
   viewBox="35.188 31.512 351.46 258.785"
   enable-background="new 35.188 31.512 351.46 258.785"
   xml:space="preserve"
   inkscape:version="0.91 r13725"
   sodipodi:docname="nvidia.svg"><metadata
     id="metadata3394"><rdf:RDF><cc:Work
         rdf:about=""><dc:format>image/svg+xml</dc:format><dc:type
           rdf:resource="http://purl.org/dc/dcmitype/StillImage" /></cc:Work></rdf:RDF></metadata><defs
     id="defs3392" /><sodipodi:namedview
     pagecolor="#ffffff"
     bordercolor="#666666"
     borderopacity="1"
     objecttolerance="10"
     gridtolerance="10"
     guidetolerance="10"
     inkscape:pageopacity="0"
     inkscape:pageshadow="2"
     inkscape:window-width="1920"
     inkscape:window-height="1051"
     id="namedview3390"
     showgrid="false"
     inkscape:zoom="2.3662672"
     inkscape:cx="178.08973"
     inkscape:cy="141.22184"
     inkscape:window-x="0"
     inkscape:window-y="0"
     inkscape:window-maximized="1"
     inkscape:current-layer="svg2" /><title
     id="title4">generated by pstoedit version:3.44 from NVBadge_2D.eps</title><path
     id="path21"
     d="m 71.529678,143.04307 c 0,0 31.750732,-52.031456 95.146372,-57.414341 l 0,-18.876938 C 96.457335,73.01537 35.650674,139.07055 35.650674,139.07055 c 0,0 34.439892,110.58039 131.025376,120.70522 l 0,-20.06477 C 95.797035,229.80711 71.529678,143.04307 71.529678,143.04307 Z m 95.146372,56.76403 0,18.37547 c -53.56877,-10.6075 -68.438166,-72.45666 -68.438166,-72.45666 0,0 25.720566,-31.647 68.438166,-36.77916 l 0,20.1635 c -0.0325,0 -0.0549,-0.011 -0.0818,-0.011 -22.4205,-2.98841 -39.93532,20.27477 -39.93532,20.27477 0,0 9.81698,39.16267 40.01714,50.43305 m 0,-167.872494 0,34.817186 c 2.06131,-0.175512 4.12263,-0.324383 6.19524,-0.402737 79.83113,-2.988406 131.8465,72.721495 131.8465,72.721495 0,0 -59.74143,80.68536 -121.98155,80.68536 -5.70424,0 -11.04447,-0.58765 -16.06019,-1.5749 l 0,21.52999 c 4.28912,0.60488 8.73625,0.9606 13.37668,0.9606 57.91855,0 99.80372,-32.85363 140.36124,-71.73737 6.72432,5.98151 34.25366,20.53333 39.91275,26.90347 -38.56252,35.8593 -128.43498,64.76548 -179.38654,64.76548 -4.91132,0 -9.62793,-0.33064 -14.26413,-0.82741 l 0,30.25388 220.14441,0 0,-258.095044 -220.14441,0 z m 0,77.012144 0,-23.316452 c 2.04016,-0.158275 4.09583,-0.280513 6.19524,-0.354165 57.4064,-2.002721 95.06877,54.792647 95.06877,54.792647 0,0 -40.67886,62.75023 -84.29519,62.75023 -6.27708,0 -11.90512,-1.12045 -16.97022,-3.01191 l 0,-70.69685 c 22.34853,2.99938 26.84646,13.96418 40.28239,38.84143 l 29.8827,-27.98632 c 0,0 -21.8138,-31.77551 -58.58589,-31.77551 -3.99707,-0.001 -7.82199,0.31028 -11.5778,0.7569"
     style="fill:#ffffff"
     inkscape:connector-curvature="0" /></svg>